# xmcd
#
# Track frame offsets:
#	150
#	18619
#	39081
#	59686
#	76442
#	91906
#	111887
#	131444
#	150618
#	169265
#	185135
#	201158
#	217687
#	238310
#
# Disc length: 3399 seconds
#
# Revision: 0
# Processed by: cddbd v1.5.2PL0 Copyright (c) Steve Scherf et al.
# Submitted via: EasyCDDAExtractor 16.0.1.1
#
DISCID=be0d450e
DTITLE=성 유빈 - Never Forget You...
DYEAR=2007
DGENRE=Pop
TTITLE0=눈을감아도
TTITLE1=내가 웃는 이유
TTITLE2=사랑합니다
TTITLE3=D-Day
TTITLE4=지금부터 나만 봐
TTITLE5=Propose
TTITLE6=연심
TTITLE7=내 가슴이 그대랍니다
TTITLE8=Wedding
TTITLE9=Day By Day
TTITLE10=Friends
TTITLE11=Only One
TTITLE12=사랑합니다 [MR]
TTITLE13=D-Day [MR]
EXTD=
EXTT0=
EXTT1=
EXTT2=
EXTT3=
EXTT4=
EXTT5=
EXTT6=
EXTT7=
EXTT8=
EXTT9=
EXTT10=
EXTT11=
EXTT12=
EXTT13=
PLAYORDER=
